<svg width="176" height="57" viewBox="0 0 176 57" fill="none" xmlns="http://www.w3.org/2000/svg">
<path d="M154.374 31.7185V21.0751H158.79V38.8909H155.188C151.662 35.2541 148.668 31.1033 145.078 27.5537V38.8909H140.662V21.0751H144.729C148.081 24.4957 150.905 28.4303 154.374 31.7185Z" fill="#02399E"/>
<path d="M119.36 36.2642C109.555 26.5039 127.581 13.8415 135.74 24.9335C142.81 34.5475 127.51 44.3777 119.36 36.2642ZM122.847 33.9505C125.852 36.9451 132.204 35.4854 132.732 30.885C133.258 26.2952 129.659 23.761 125.307 24.6495C121.24 25.4799 120.044 31.156 122.847 33.9505Z" fill="#02399E"/>
<path d="M17.9417 26.1662C14.5971 24.344 8.00405 23.2953 5.57814 26.9309C3.2374 30.4386 5.32261 34.8498 9.47793 35.4016C10.1787 35.4941 13.354 35.3693 13.7346 34.9358C13.8952 34.753 13.671 33.0857 13.7594 32.6436H11.2019V29.406H18.4074V36.6945C18.4074 36.9021 17.078 37.6959 16.7762 37.8476C10.748 40.8636 0.664852 38.7436 0.0373494 30.9172C-0.742178 21.1978 10.8612 18.7066 17.9417 22.3487V26.1662Z" fill="#02399E"/>
<path d="M31.7705 21.0763C35.6735 21.6238 37.7328 26.7793 34.6783 29.5221C34.2848 29.876 33.6767 30.089 33.4276 30.3117C32.8691 30.8086 33.7252 30.8258 33.9894 31.1216C35.7533 33.0932 36.7085 36.5299 37.9301 38.892H33.0492C31.5581 36.1803 30.895 30.9796 26.7742 31.7197V38.892H22.3579V21.0763C25.2733 21.3699 28.9521 20.6804 31.7715 21.0763H31.7705ZM30.1435 24.315C29.1699 24.144 27.8017 24.4387 26.7731 24.315V28.4798C28.3774 28.482 31.309 28.8445 31.6087 26.6825C31.7478 25.6811 31.1904 24.4989 30.1435 24.315Z" fill="#02399E"/>
<path d="M56.0587 33.1072C56.1245 32.948 56.4296 32.6823 56.5665 32.3478C57.9768 28.9198 59.3267 25.4627 60.7456 22.0411L66.3618 21.2914L74.1873 38.8909H69.6546C68.8513 38.1487 68.7327 36.2954 68.1678 35.5629C67.8627 35.1671 61.0237 35.5758 59.9186 35.4048L58.5763 38.8511C57.3935 38.7532 54.877 39.2276 53.9659 38.6586C54.8209 36.8816 55.3147 34.9175 56.0576 33.1061L56.0587 33.1072ZM66.751 32.4134C65.8971 30.4579 65.1909 27.8796 64.2055 26.0403C64.0653 25.7789 64.0211 25.4164 63.6157 25.4702L61.1725 32.4134H66.751Z" fill="#F47D07"/>
<path d="M53.967 38.6596C53.1185 38.1293 52.9632 35.721 52.1869 35.4574C51.6931 35.2896 45.3879 35.3058 44.5448 35.4047C44.3917 35.423 44.2375 35.3692 44.1793 35.5575L43.0439 38.8909H38.163L45.5151 21.3387C45.9432 21.1902 50.8629 21.8496 51.1184 22.0615L56.0598 33.1072C55.3169 34.9185 54.8231 36.8827 53.9681 38.6596H53.967ZM45.6003 32.1821H50.9459L48.0435 25.4712L45.6003 32.1821Z" fill="#02399E"/>
<path d="M175.059 22.0013V25.4713C172.829 24.8582 170.476 23.5836 168.081 24.1935C166.61 24.5678 166.482 25.8306 167.637 26.7287C170.174 28.7014 175.492 28.3927 175.962 33.0169C176.682 40.0913 166.886 40.1397 162.508 37.5023V33.7999C164.822 34.7863 167.663 36.6869 170.311 35.6672C171.632 35.1585 171.737 33.8623 170.628 33.0051C168.153 31.0926 163.036 31.284 162.331 27.1504C161.104 19.9619 170.497 19.9705 175.059 21.9992V22.0013Z" fill="#02399E"/>
<path d="M62.1008 7.19523C62.3618 7.4792 60.889 12.4239 61.2189 13.5081C61.4981 14.4256 65.013 16.9136 65.5888 18.0656L59.1358 19.0466L56.5212 24.7765C55.5045 23.8407 54.3013 19.6005 53.3643 19.0154C52.3476 18.3807 48.3734 18.4431 46.9955 18.0656C47.5594 16.8232 51.3503 14.4891 51.6112 13.5038C51.9088 12.3809 50.4381 8.65056 50.7163 7.19415C50.919 6.96504 55.5627 9.92842 56.1935 9.96929C57.1789 10.0328 61.8162 6.88222 62.103 7.19415L62.1008 7.19523Z" fill="#F47D07"/>
<path d="M75.3506 21.0762L79.8855 31.0269L84.4149 21.0762H89.2959L81.1847 38.9791C81.0036 39.2168 79.7593 39.1813 79.4089 39.1393C78.4051 39.0199 71.7581 23.0296 70.4686 21.0751H75.3496L75.3506 21.0762Z" fill="#02399E"/>
<path d="M116.489 21.0763V24.315H109.981V38.8909H105.565V24.315H99.0577V21.0763H116.489Z" fill="#02399E"/>
<path d="M96.0356 21.0763H91.6194V38.892H96.0356V21.0763Z" fill="#02399E"/>
<path d="M71.3969 0.253068C71.6589 0.605876 70.7252 3.17879 70.9764 4.01994C71.1802 4.70189 73.1371 5.92166 73.4908 6.72946C72.6002 6.84671 70.4341 6.83057 69.785 7.32214C69.4497 7.57599 68.2292 10.6684 67.9155 10.4329C67.7268 9.94561 66.6745 7.39851 66.4642 7.24684C66.0491 6.94782 63.4884 6.80045 62.8006 6.73054C62.9677 5.48495 65.1456 4.94068 65.3127 3.79298C65.4378 2.93247 64.7338 1.19963 64.6604 0.255219C64.8081 0.107858 67.4163 1.82995 68.047 1.87082C68.9764 1.93106 70.4223 0.509069 71.3969 0.254144V0.253068Z" fill="#F47D07"/>
<path d="M29.3305 53.0054C28.4486 53.1796 27.5763 53.4722 26.6609 53.4851C20.2641 53.5755 20.6587 44.8263 25.7218 44.2067C26.6836 44.0894 29.3823 43.8797 28.8637 45.3684C26.3483 44.6929 23.5191 45.093 23.1159 48.0897C22.6964 51.2123 24.8625 53.1506 27.9504 52.4396C28.2426 52.2374 28.2739 49.6354 28.1693 49.5322C27.8512 49.2159 25.7822 50.2604 26.3073 48.6093H29.3294V53.0043L29.3305 53.0054Z" fill="#F47D07"/>
<path d="M111.143 52.5418V56.0118H109.981V46.9883C109.981 46.8958 111.294 46.7689 111.026 47.9123C117.623 42.8277 117.83 56.8863 111.143 52.5407V52.5418ZM112.471 47.7337C109.967 48.3016 111.021 54.0531 113.911 52.4063C115.91 51.2672 115.34 47.0829 112.471 47.7337Z" fill="#F47D07"/>
<path d="M119.68 46.8119C124.819 45.8836 124.557 54.1875 119.683 53.412C116.257 52.8677 116.35 47.4132 119.68 46.8119ZM119.677 47.7326C117.578 48.2081 117.814 53.4249 120.973 52.4945C122.847 51.9427 123.059 46.9668 119.677 47.7326Z" fill="#F47D07"/>
<path d="M88.4441 47.5304C91.5633 44.5143 95.8609 49.7236 92.759 52.6353C89.5061 55.688 85.4198 50.4561 88.4441 47.5304ZM89.1374 52.0061C89.6959 52.6128 90.8269 52.7149 91.5654 52.3707C93.0598 51.6737 93.2884 46.9657 89.9255 47.7337C88.3859 48.0854 88.1972 50.9853 89.1374 52.0061Z" fill="#F47D07"/>
<path d="M155.768 53.2367C155.532 53.4637 154.477 53.2679 154.837 52.5408C149.736 55.8591 148.917 48.5781 154.607 49.302C154.69 46.3914 152.301 48.0586 151.492 47.8811C150.22 47.6025 151.967 46.8517 152.652 46.7754C153.427 46.6883 154.501 46.756 155.081 47.3261C155.185 47.4272 155.768 48.4254 155.768 48.4932C155.768 49.1676 155.94 53.0721 155.768 53.2367ZM154.607 49.9969C149.567 49.5269 152.6 54.7394 154.39 51.9804C154.773 51.3909 154.573 50.6627 154.607 49.9969Z" fill="#F47D07"/>
<path d="M141.591 53.2366H140.429V48.9567C140.429 48.8954 139.909 47.9607 139.81 47.8972C138.874 47.2992 137.175 48.051 137.175 48.9567V53.2366H136.013V46.9894C136.264 47.0313 136.784 46.9065 136.92 47.0206C137.014 47.0991 136.773 47.9413 137.288 47.6821C138.182 47.2325 138.452 46.3741 139.976 46.8603C140.663 47.0797 141.591 48.2715 141.591 48.9567V53.2366Z" fill="#F47D07"/>
<path d="M96.2685 46.9894V51.038C96.2685 51.4715 97.0275 52.474 97.5601 52.5472C98.2491 52.6429 99.5224 51.8867 99.5224 51.2693V46.9894H100.685V53.2366C100.434 53.1947 99.9127 53.3195 99.7769 53.2054C99.641 53.0914 99.9893 52.3568 99.4103 52.545C99.1613 52.6257 98.6621 53.2173 98.1348 53.3593C95.0933 54.1832 94.9057 50.1281 95.1353 48.0553C95.2367 47.1389 95.2679 46.8173 96.2696 46.9883L96.2685 46.9894Z" fill="#F47D07"/>
<path d="M60.4749 53.2367C60.1914 53.5088 59.3073 53.2184 59.4302 52.544C54.5999 55.83 53.6242 48.5189 59.3137 49.3031C59.565 46.4279 56.9611 48.0489 56.1989 47.8811C54.9266 47.6025 56.6743 46.8517 57.359 46.7753C58.2992 46.6699 60.4749 47.1185 60.4749 48.2619C60.4749 48.9642 60.655 53.0635 60.4749 53.2367ZM56.8177 50.5185C55.153 52.2847 58.8954 54.0187 59.5013 51.2188C59.897 49.3891 57.455 49.843 56.8177 50.5185Z" fill="#F47D07"/>
<path d="M83.7195 51.848C84.1012 52.2535 84.112 51.7523 84.1864 51.5081C84.3653 50.9154 85.4198 47.1658 85.5998 47.013C85.7508 46.885 86.4505 47.0399 86.7373 46.9904C85.9524 48.9782 84.0796 56.242 81.5114 56.2463C80.941 54.8705 81.8003 55.19 82.444 54.6296C82.7728 54.3435 83.2667 53.5744 83.271 53.1237C83.2796 52.2309 80.6844 47.2088 80.9292 46.9904C81.3324 47.0098 81.8974 46.8442 82.21 47.2163C82.679 47.7757 83.547 51.6641 83.7195 51.848Z" fill="#F47D07"/>
<path d="M40.2536 53.2346C39.4288 53.2206 38.9167 53.5336 39.0902 52.5408C34.1036 55.8215 33.2141 48.605 38.8606 49.3031C39.4126 46.472 35.7565 48.0844 35.6077 47.9145C35.0762 47.311 36.4304 46.8345 36.908 46.7786C41.3825 46.258 39.515 50.5605 40.2536 53.2356V53.2346ZM39.0935 49.9969C37.8309 49.6699 35.3931 50.4777 36.1856 52.0815C37.0417 53.8143 39.9075 51.8395 39.0935 49.9969Z" fill="#F47D07"/>
<path d="M134.617 50.228H130.318C129.486 50.228 130.218 52.3513 131.939 52.546C132.703 52.6332 133.424 52.4987 134.152 52.3105C134.525 53.4001 133.355 53.4571 132.414 53.4808C127.583 53.6045 128.16 46.7634 131.943 46.7365C133.939 46.7226 134.831 48.4253 134.618 50.227L134.617 50.228ZM133.688 49.5343C133.481 46.6333 130.331 46.8764 129.969 49.5343H133.688Z" fill="#F47D07"/>
<path d="M71.8638 50.2281H67.564C66.8416 50.2281 67.5554 51.705 68.0233 52.0847C68.971 52.8537 70.3209 52.5687 71.397 52.3116C71.7819 53.3819 70.5775 53.4776 69.6546 53.4862C67.2287 53.5077 66.0621 51.9943 66.2853 49.6494C66.681 45.4738 72.529 45.9224 71.8638 50.2281ZM70.9344 49.5343C70.7932 46.6237 67.6449 46.8775 67.2158 49.5343H70.9344Z" fill="#F47D07"/>
<path d="M42.3194 47.0173C42.5987 47.2572 43.7933 52.0868 44.0898 52.0825C44.4844 51.4651 45.6381 47.1647 45.8656 47.0227C46.0931 46.8807 46.6774 47.0399 46.9944 46.9915C46.6807 47.7509 44.851 53.171 44.5221 53.2506C44.3216 53.299 43.858 53.2732 43.665 53.199C43.0634 52.9699 41.4526 47.9402 41.1862 46.9915C41.4763 47.041 42.1631 46.8829 42.3205 47.0184L42.3194 47.0173Z" fill="#F47D07"/>
<path d="M76.9776 46.9915C77.0984 47.1346 76.9345 47.8423 76.6369 47.8811C76.2304 47.9338 74.3997 46.7861 74.3964 48.4931C74.3943 49.9538 77.3798 49.3106 77.2223 51.7286C77.1242 53.2334 75.6212 53.5873 74.3274 53.4464C73.6395 53.3711 72.2789 52.588 73.3959 52.3213C73.8584 52.2105 76.1884 53.1603 76.2196 51.7006C76.2509 50.2281 71.894 50.1216 73.5145 47.5906C74.0557 46.7441 76.5647 46.5042 76.9776 46.9915Z" fill="#F47D07"/>
<path d="M126.483 52.1954C126.645 52.6977 128.005 52.4019 128.109 52.8935C128.296 53.7669 125.576 53.9519 125.317 51.7383C125.239 51.0746 125.472 47.8219 125.324 47.6831C125.24 47.6046 124.474 47.7649 124.391 47.6831C124.366 47.6584 124.366 47.0152 124.391 46.9904C124.473 46.9097 125.244 47.0689 125.324 46.9904C125.582 46.7409 124.589 45.4619 126.365 45.3662C126.676 45.6254 126.357 46.8656 126.483 46.9904C126.564 47.0711 127.793 46.9291 128.113 46.9904V47.6821C128.031 47.7681 126.485 47.6025 126.485 47.6821C126.485 48.5963 126.296 51.607 126.485 52.1933L126.483 52.1954Z" fill="#F47D07"/>
<path d="M145.076 46.9904C145.151 47.0679 146.388 46.9313 146.705 46.9904V47.6821C146.386 47.7423 145.157 47.6014 145.076 47.6821C144.916 47.8402 145.024 51.9082 145.109 52.1632C145.385 52.9892 146.896 51.8889 146.472 53.4668C142.527 54.4457 144.426 48.1618 143.917 47.6821C143.833 47.6035 143.066 47.7638 142.983 47.6821C142.958 47.6573 142.958 47.0141 142.983 46.9894C143.065 46.9087 143.836 47.0679 143.917 46.9894C144.098 46.814 143.365 44.9822 144.968 45.5878C145.206 46.0062 145.001 46.913 145.076 46.9894V46.9904Z" fill="#F47D07"/>
<path d="M158.79 43.7506H157.628V53.2366H158.79V43.7506Z" fill="#F47D07"/>
<path d="M54.6657 46.9905V47.6832C54.1287 47.737 53.0409 47.4455 52.8371 48.064C52.6904 48.5082 52.7476 51.3672 52.9093 51.861C53.2619 52.9366 54.2926 52.4138 54.4328 52.544C55.0851 53.156 53.1843 54.1015 52.2311 52.9979C51.3082 51.9298 52.4683 48.0683 51.4775 47.723C50.906 47.524 50.5653 48.0295 50.7109 46.9916C52.6085 47.2336 51.1185 45.4728 52.8015 45.3706C52.588 47.0819 53.1228 47.1066 54.6646 46.9916L54.6657 46.9905Z" fill="#F47D07"/>
<path d="M65.5898 46.9904V47.6831C65.0529 47.7369 63.965 47.4454 63.7612 48.0639C63.6146 48.5081 63.6717 51.3672 63.8335 51.8609C64.186 52.9365 65.2168 52.4138 65.357 52.5439C66.047 53.1915 63.909 54.2477 63.0205 52.6698C62.4006 51.5694 63.3062 48.0381 62.4017 47.7229C61.8291 47.5239 61.4895 48.0295 61.6361 46.9904C63.5941 47.3863 62.4437 46.0492 62.8329 45.6319C62.9009 45.5598 63.5068 45.5523 63.7267 45.3694C63.5133 47.0808 64.048 47.1055 65.5898 46.9904Z" fill="#F47D07"/>
<path d="M31.1904 46.9893C31.6281 46.5698 32.3861 47.169 32.2351 47.9133C32.7872 47.3475 33.3295 46.6742 34.2104 46.7581C34.4228 48.5393 33.9322 47.6035 33.047 48.0273C32.8853 48.1048 32.3516 48.8556 32.3516 48.9556V53.2355H31.1893C31.3596 52.4277 30.9629 47.2055 31.1893 46.9883L31.1904 46.9893Z" fill="#F47D07"/>
<path d="M102.776 46.9893C103.214 46.5699 103.972 47.1701 103.821 47.9133C104.217 47.1647 104.92 46.7688 105.796 46.7581C106.434 47.9671 103.939 47.9768 103.939 48.7233V53.2345H102.776C102.947 52.4267 102.55 47.2045 102.776 46.9872V46.9893Z" fill="#F47D07"/>
<path d="M49.319 46.9894V53.2367C49.319 53.2829 48.3896 53.2829 48.3896 53.2367V46.9894C48.3896 46.9431 49.1529 47.0206 49.319 46.9894Z" fill="#F47D07"/>
<path d="M149.028 46.9894V53.2367C149.028 53.2829 148.099 53.2829 148.099 53.2367V46.9894C148.099 46.9431 148.862 47.0206 149.028 46.9894Z" fill="#F47D07"/>
<path d="M48.1772 44.4649C48.5233 43.9829 49.7815 44.4154 49.5497 45.2471C49.2996 46.1455 47.5464 45.3428 48.1772 44.4649Z" fill="#F47D07"/>
<path d="M148.476 44.2282C149.046 44.1378 149.67 45.3386 148.887 45.5806C147.581 45.9852 147.684 44.3541 148.476 44.2282Z" fill="#F47D07"/>
</svg>
