<svg width="40" height="44" viewBox="0 0 40 44" fill="none" xmlns="http://www.w3.org/2000/svg">
<path d="M12.5548 43.7159L11.7846 43.2518L8.97676 39.8433C8.51942 39.8342 8.01656 39.7318 7.57628 39.7113C6.45339 39.659 5.10524 39.7716 4.00397 39.6226C3.1052 39.5008 2.49427 38.4337 2.91521 37.6123L6.42381 31.1161C4.52503 30.7384 3.56938 29.7441 3.69566 27.7486C3.76733 26.6144 4.29408 25.3959 4.20761 24.2616C4.03355 21.943 0.322442 21.1285 0.544289 18.2934C0.719492 16.0601 4.03924 15.0009 4.20761 12.9304C4.34414 11.2602 3.28496 9.52756 3.86404 7.81763C4.70933 5.31928 8.40565 6.34888 10.0803 5.26354C11.3648 4.43189 11.648 1.54105 13.2408 0.504627C15.4979 -0.964116 17.6049 1.98133 19.663 2.07804C21.8928 2.18384 23.9293 -1.00507 26.3423 0.505765C27.7883 1.41022 28.0192 3.60935 29.0773 4.83918C30.4504 6.43535 33.1866 5.45694 34.8578 6.72204C36.9273 8.28862 35.2059 10.944 35.3777 12.9304C35.5802 15.266 39.6236 16.2478 39.0138 19.125C38.5667 21.2354 35.5609 22.2491 35.3777 24.174C35.2116 25.9147 36.628 28.3334 35.421 29.9239C34.9181 30.586 33.9886 31.0638 33.1627 31.115L36.6701 37.6134C37.1036 38.4473 36.4824 39.502 35.5825 39.6226C34.5131 39.7671 33.2673 39.6658 32.1797 39.7113C31.6826 39.7318 31.1217 39.8387 30.6074 39.8421L27.8418 43.2085L27.1159 43.7182H26.3491L25.7507 43.3382L21.4491 35.6316C20.4832 34.8944 19.1783 34.875 18.1715 35.5838L13.9871 43.1517L13.1498 43.7194H12.5536L12.5548 43.7159ZM25.811 1.7629C24.7165 0.809525 22.8872 2.41024 21.8348 2.8801C20.2978 3.56612 19.2898 3.56612 17.7528 2.8801C16.8267 2.46712 15.3773 1.29759 14.3216 1.49555C13.2658 1.6935 12.4945 4.34316 11.9086 5.21803C10.177 7.79942 8.19404 6.68677 5.89024 7.63105C4.27701 8.29204 5.38966 10.556 5.48978 11.8223C5.61492 13.407 5.45792 14.2466 4.42377 15.4458C3.73548 16.2433 1.7855 17.5141 1.8219 18.6358C1.87196 20.1899 5.28158 21.5699 5.48637 23.835C5.62061 25.3231 5.14847 26.3151 5.06315 27.6667C4.96758 29.1866 5.30434 29.5086 6.74578 29.8135C9.38519 30.3732 10.8016 29.8033 12.2851 32.6202C12.697 33.4029 13.3227 35.4188 14.2567 35.6726C15.2488 35.9433 16.8677 34.6555 17.779 34.2505C19.3683 33.5428 20.4901 33.6065 22.0396 34.3619C23.3411 34.9968 24.9077 36.602 26.1159 35.0081C27.5915 33.0627 27.216 30.9432 30.2332 30.1833C31.2764 29.9205 34.1672 30.0456 34.4869 28.8169C34.9648 26.9807 33.3049 24.8077 34.4915 22.6894C35.1764 21.4675 37.5735 19.8474 37.743 18.7871C37.9523 17.4799 35.801 16.1557 35.0398 15.2285C32.9875 12.7313 34.8521 10.977 34.5188 8.51047C34.4289 7.84493 33.9602 7.61853 33.372 7.44333C30.8998 6.70839 29.1216 7.60147 27.5073 4.87673C27.0078 4.03371 26.5129 2.37383 25.8099 1.76176L25.811 1.7629ZM15.961 36.734C14.2351 37.3199 13.1941 36.9775 12.2123 35.5008C11.5434 34.4951 11.0587 32.6566 10.1645 31.9285C9.66051 31.5189 8.47163 31.3949 7.84136 31.2766L4.12456 38.2665C5.96419 38.3927 7.81747 38.329 9.63775 38.5861C9.73104 38.6317 9.80044 38.7045 9.87553 38.775C10.7868 39.6351 11.6196 41.0743 12.5115 42.0151C12.5934 42.1016 12.8255 42.3814 12.937 42.3553L15.961 36.7351V36.734ZM31.7872 31.297C31.463 31.0934 29.7599 31.6497 29.414 31.9193C28.5778 32.5724 28.1273 34.1924 27.5869 35.1162C26.6301 36.7522 25.4219 37.461 23.5402 36.6487L26.6074 42.353C26.7143 42.4304 26.993 42.0993 27.0761 42.014C28.0784 40.9719 28.91 39.6135 29.9499 38.5861C30.2058 38.5167 30.4687 38.4542 30.7337 38.4326C32.1809 38.3199 33.7873 38.4178 35.2503 38.3506L35.4631 38.221L31.7872 31.297Z" fill="#F47D07"/>
<path d="M18.754 5.93159C28.9056 5.18186 35.8408 15.9557 30.793 24.8694C25.6586 33.9378 12.1635 33.1096 8.11106 23.5076C4.77425 15.6019 10.2169 6.563 18.754 5.93159ZM19.5208 7.20806C10.5912 7.39464 5.32034 17.6269 10.4422 25.0082C15.0111 31.5919 24.7234 31.5339 29.215 24.9069C34.3835 17.2822 28.6462 7.01693 19.5208 7.20806Z" fill="#F47D07"/>
<path d="M19.5128 10.8637C19.8052 10.7761 20.1841 10.8182 20.3411 11.1071L22.3514 15.0583L26.885 15.7193C27.2377 15.9241 27.3628 16.1687 27.2684 16.5771C26.3184 17.7967 24.9908 18.7273 23.9862 19.9253L24.7348 24.2632C24.7337 24.8924 24.2183 25.1484 23.6483 24.9163L19.8348 22.9447L15.8996 24.9652C15.4388 25.0699 15.1225 24.9174 14.9746 24.4714L15.6914 19.9321L12.5161 16.8877C12.2431 16.3803 12.3 15.9138 12.8904 15.7375C14.0691 15.3871 15.7084 15.4724 16.9178 15.1664C17.027 15.1391 17.1374 15.1197 17.2329 15.056C17.994 13.9286 18.44 12.3096 19.1795 11.2118C19.2637 11.0878 19.3558 10.9092 19.5117 10.8625L19.5128 10.8637ZM19.878 12.9741C19.6789 12.9297 19.7415 13.0025 19.6892 13.0833C19.2682 13.7249 18.8803 14.9092 18.5049 15.6442C18.2716 16.1004 18.225 16.2312 17.6869 16.3586C16.6812 16.5976 15.4593 16.5862 14.4308 16.8069C14.8609 17.353 16.8643 18.9184 17.0316 19.4406C17.2489 20.1164 16.4627 22.2757 16.4741 23.1074C16.6027 23.2439 19.3172 21.4611 19.8359 21.4839C20.5208 21.5135 22.3161 22.9071 23.1159 23.1074L22.5732 19.4634L25.1591 16.8069C24.1455 16.5782 22.9896 16.5828 21.9896 16.3564C21.5573 16.2585 21.4185 16.1857 21.1943 15.7887L19.878 12.9741Z" fill="#F47D07"/>
</svg>
