<svg width="44" height="41" viewBox="0 0 44 41" fill="none" xmlns="http://www.w3.org/2000/svg">
<path d="M0.981227 31.849C0.341852 31.7125 0.472685 30.1994 0.514779 29.6783C0.790097 26.2482 3.50005 22.958 6.81524 22.0536C5.17357 20.6053 4.35558 18.7088 5.18154 16.5461C6.6901 12.5972 12.4615 12.7269 13.8017 16.7281C14.5071 18.8339 13.6709 20.6576 12.0952 22.0524C13.8188 22.5519 15.3797 23.6202 16.4741 25.04C16.5481 25.1094 16.6345 25.1208 16.7313 25.1242C17.0043 25.1321 18.8598 24.6532 19.2171 24.536C19.324 24.5007 19.431 24.5098 19.5026 24.3961C18.6767 23.8079 18.0259 22.9364 17.6414 22.0001C15.9963 17.9955 18.4753 14.1183 22.943 14.8248C27.7451 15.5847 27.8384 21.9034 24.4424 24.3961C24.5141 24.5098 24.6222 24.5007 24.728 24.536C25.0204 24.6327 27.1205 25.1446 27.29 25.1219C27.4596 25.0991 28.24 24.1435 28.4846 23.9251C29.4243 23.0866 30.636 22.3972 31.851 22.0524C29.959 20.4312 29.2321 18.0558 30.5905 15.8111C32.3425 12.9169 36.6406 12.918 38.3915 15.8111C39.7488 18.0535 39.0184 20.4312 37.131 22.0524C40.4427 22.9592 43.1561 26.2482 43.4314 29.6772C43.4644 30.0924 43.585 31.8479 42.965 31.8479H32.363C32.322 33.2791 32.4176 34.7216 32.3664 36.1517C32.2867 38.3895 32.1434 40.3156 29.5131 40.7934C24.6313 40.5124 19.3525 41.1552 14.5173 40.7934C13.0179 40.6819 11.8006 39.4225 11.6697 37.9356C11.6219 37.4009 11.5992 36.6966 11.5798 36.1517C11.5286 34.7216 11.6253 33.2779 11.5833 31.8479H0.981227V31.849ZM9.09401 14.8407C4.38402 15.331 5.5911 22.6645 10.3079 21.5041C14.2693 20.5291 13.292 14.4038 9.09401 14.8407ZM34.1309 14.8407C29.4209 15.331 30.628 22.6645 35.3448 21.5041C39.3062 20.5291 38.3289 14.4038 34.1309 14.8407ZM21.6995 15.9499C16.3706 16.2127 18.1067 24.1628 22.0146 24.1059C26.017 24.0479 27.6006 15.6587 21.6995 15.9499ZM1.70479 30.6567H11.5833C11.7243 29.8535 11.6401 29.0651 11.8643 28.2551C12.3262 26.5815 13.8256 25.9934 15.3308 25.5053C10.6208 20.0922 1.57054 23.4597 1.70593 30.6567H1.70479ZM42.2403 30.6567C42.3711 23.4643 33.3266 20.0899 28.6154 25.5053C30.1183 25.9774 31.6235 26.5952 32.0819 28.2551C32.3049 29.0651 32.2219 29.8535 32.363 30.6567H42.2414H42.2403ZM22.3138 25.2914H21.6324L20.3673 34.5362L21.9395 36.7842C22.0601 36.8104 22.117 36.6796 22.1807 36.6113C22.3582 36.4202 23.5755 34.6613 23.5801 34.5362L22.315 25.2914H22.3138ZM15.5003 39.5989V32.2324C15.5003 31.7182 16.6926 31.7273 16.6926 32.403V39.5989H27.2525V32.403C27.2525 31.7284 28.4448 31.7182 28.4448 32.2324V39.5989C29.0671 39.5989 29.6257 39.6808 30.1763 39.3292C31.2742 38.6296 31.0273 37.6694 31.0853 36.576C31.1946 34.51 31.2139 32.4235 31.0853 30.3575C30.9602 28.3495 31.1081 27.7306 29.0614 26.9308C27.3242 26.2516 25.3446 25.9717 23.5482 25.4609L24.786 34.7865C24.7815 35.0004 24.6609 35.1585 24.5608 35.3326C23.9771 36.3531 22.9851 37.3519 22.3719 38.3804C22.175 38.5374 21.7678 38.5385 21.5698 38.3804C20.7928 37.1984 19.8178 36.1187 19.1659 34.8661L20.4378 25.4621C18.6266 25.9615 16.63 26.2471 14.8814 26.9308C13.5458 27.453 13.0338 27.8455 12.87 29.3472C12.6254 31.5862 12.7391 34.3234 12.8586 36.576C12.8961 37.2905 12.7278 38.0448 13.1294 38.6899C13.6618 39.5465 14.5606 39.6865 15.5003 39.5977V39.5989Z" fill="#F47D07"/>
<path d="M21.6937 0.785852C22.076 0.707352 22.522 0.794953 22.7779 1.11009C23.1295 1.54127 24.0408 4.02027 24.2694 4.13176C25.2274 4.37978 26.5869 4.26715 27.4936 4.56977C27.9726 4.73018 28.2513 5.25352 28.1853 5.74158C28.0898 6.4458 26.1182 7.76665 25.6483 8.4083L26.2274 11.6996C25.6028 13.9841 23.2364 11.4903 22.0009 11.0909C20.8564 11.5278 19.837 12.5153 18.6163 12.6871C16.8336 12.1456 18.3785 9.70525 18.2978 8.40716C17.5241 7.51977 16.3569 6.8292 15.7744 5.81325C15.4058 3.99069 18.6345 4.48331 19.6744 4.13176C19.911 3.99297 20.795 1.61408 21.1329 1.16242C21.2614 0.990634 21.4799 0.830221 21.6926 0.785852H21.6937ZM22.0567 2.21364C21.861 2.17268 21.9213 2.23525 21.8667 2.32172C21.5652 2.80296 21.2978 3.65963 21.0248 4.2023C20.9167 4.41618 20.6311 5.08741 20.4753 5.18526L17.2045 5.61985C17.1726 5.75637 17.2511 5.79391 17.3296 5.87696C17.8245 6.41054 18.5913 6.968 19.1226 7.49019C19.2728 7.63695 19.5333 7.8588 19.5754 8.06586C19.6675 8.52889 18.8928 11.1933 18.994 11.3242L21.9327 9.78489C22.9907 10.108 23.9372 10.8611 24.9532 11.3242C25.0556 11.1933 24.2797 8.52889 24.3718 8.06586C24.4128 7.8588 24.6745 7.63695 24.8246 7.49019C25.3559 6.968 26.1227 6.41054 26.6176 5.87696C26.695 5.79278 26.7735 5.75637 26.7428 5.61985L23.4731 5.18526L22.0589 2.21364H22.0567Z" fill="#F47D07"/>
<path d="M11.086 6.54231C11.8949 6.70159 14.2533 6.52297 13.7937 7.95417C13.614 8.51277 12.3216 9.27047 12.1964 9.68231C11.9689 10.4355 13.1498 12.1397 11.9734 12.6084C11.0838 12.9634 10.0451 11.6323 9.41934 11.6664C8.70715 11.7062 7.69689 13.1386 6.77196 12.5174C5.84703 11.8962 6.93806 10.4286 6.7128 9.68231C6.5467 9.13395 5.00628 8.45134 5.05407 7.63221C5.12119 6.47633 7.0268 6.738 7.82318 6.54231C8.30555 5.75618 8.52513 3.90062 9.80046 4.2954C10.35 4.46605 10.7937 6.04401 11.0872 6.54231H11.086ZM9.53766 5.96096C9.33856 5.91773 9.40114 5.98827 9.34767 6.07018C9.14402 6.38531 8.79475 7.40809 8.55015 7.56964C8.18951 7.80855 7.18266 7.78921 6.72873 7.83472C7.00632 8.55146 8.05526 8.82564 8.00521 9.66297C7.99042 9.90529 7.66504 11.06 7.75037 11.1556L9.48191 10.3296L11.1554 11.1556C11.2624 11.0373 10.7948 9.66524 10.9177 9.25682C10.9825 9.04293 11.8437 8.35919 12.0497 8.09069C12.1156 8.00537 12.2146 7.98262 12.1759 7.83472L10.3545 7.56964L9.53538 5.96096H9.53766Z" fill="#F47D07"/>
<path d="M36.1229 6.54231C36.9318 6.70159 39.2902 6.52297 38.8306 7.95417C38.6508 8.51277 37.3584 9.27047 37.2333 9.68231C37.0057 10.4355 38.1867 12.1397 37.0103 12.6084C36.1206 12.9634 35.0819 11.6323 34.4562 11.6664C33.744 11.7062 32.7338 13.1386 31.8088 12.5174C30.9032 11.9087 31.9749 10.4286 31.7497 9.68231C31.5836 9.13395 30.0431 8.45134 30.0909 7.63221C30.1581 6.47633 32.0637 6.738 32.86 6.54231C33.3424 5.75618 33.562 3.90062 34.8373 4.2954C35.3868 4.46605 35.8305 6.04401 36.124 6.54231H36.1229ZM34.5745 5.96096C34.3754 5.91773 34.438 5.98827 34.3845 6.07018C34.1809 6.38531 33.8316 7.40809 33.587 7.56964C33.2264 7.80855 32.2195 7.78921 31.7656 7.83472C32.0432 8.55146 33.0921 8.82564 33.0421 9.66297C33.0273 9.90529 32.7019 11.06 32.7872 11.1556L34.5188 10.3296L36.1923 11.1556C36.2992 11.0373 35.8317 9.66524 35.9545 9.25682C36.0194 9.04293 36.8806 8.35919 37.0865 8.09069C37.1525 8.00537 37.2515 7.98262 37.2128 7.83472L35.3914 7.56964L34.5722 5.96096H34.5745Z" fill="#F47D07"/>
</svg>
