<svg width="44" height="44" viewBox="0 0 44 44" fill="none" xmlns="http://www.w3.org/2000/svg">
<path d="M11.6898 2.76198C11.7626 2.68575 13.0994 2.05434 13.3166 1.95991C30.1088 -5.33375 47.6996 10.3662 42.4924 27.8432C38.0919 42.6171 19.7844 47.987 7.95818 37.9947C-0.401484 30.9309 -2.09321 18.2754 4.31533 9.34003C3.98996 8.84628 2.54283 7.91794 2.72258 7.31497C2.84204 7.06354 3.13442 7.01121 3.37334 6.93839C5.60205 6.25692 8.10039 5.95316 10.3575 5.30583C10.7671 5.20685 11.0515 5.42414 11.0663 5.84053L9.19939 13.4345C8.62372 14.1058 7.62712 12.4812 7.18911 12.1967C1.17193 21.33 5.23344 33.8399 15.3394 37.8696C25.5592 41.9448 37.0691 35.7433 39.1169 24.9843C41.6858 11.4846 28.8323 0.800618 15.8901 5.20912C15.4145 5.37181 14.4691 5.92131 14.0322 5.78934C13.6341 5.66874 12.1676 3.78475 11.6636 3.46961C11.5271 3.31034 11.5578 2.8985 11.6898 2.76198ZM4.2448 7.76662C4.4712 8.18643 5.54289 8.83377 5.48259 9.31045C5.4496 9.56871 4.29599 11.2047 4.05936 11.6256C-2.95899 24.1799 4.88645 40.0084 19.1461 41.9027C33.8552 43.8561 45.7029 30.1266 41.555 15.876C38.0577 3.86211 24.2623 -2.37806 12.9492 3.29441L14.4384 4.6983C22.7924 1.0054 32.6902 4.04641 37.5572 11.6905C44.1375 22.0252 38.9793 35.923 27.2623 39.3827C13.2689 43.5148 0.233342 30.8331 4.01271 16.7748C4.43251 15.215 5.54972 12.3902 6.59752 11.1797C7.34839 10.3127 7.80004 11.5574 8.38254 11.9396C8.469 11.9965 8.44625 12.0762 8.55433 11.9408L9.87517 6.49015L4.24366 7.76776L4.2448 7.76662Z" fill="#F47D07"/>
<path d="M34.6766 31.2403C32.0247 33.9093 27.8596 33.8058 25.1053 31.3575H12.9025C11.9378 31.2972 11.0709 30.6089 10.9821 29.6134V13.6803C11.0697 12.6928 11.9355 11.9942 12.9025 11.9351H28.4376C29.4251 12.0056 30.251 12.6734 30.3534 13.6848L30.3921 19.6929C31.7812 19.8761 33.0645 20.3266 34.1498 21.2231C37.2238 23.7635 37.5094 28.3893 34.6766 31.2392V31.2403ZM17.641 12.9601H12.7353C12.6136 12.9601 12.0766 13.3651 12.0482 13.5517L12.0083 29.5259C11.931 29.8137 12.5544 30.3325 12.7353 30.3325H24.2964C22.8004 28.0708 22.6775 25.3335 24.0575 22.9831C25.1645 21.0968 27.1326 19.9511 29.2942 19.694L29.3261 13.6894C29.3613 13.4379 28.7629 12.9601 28.6059 12.9601H23.7003V18.6235C23.7003 18.9033 23.2247 19.2446 22.9369 19.0467L20.6718 17.1616L18.4066 19.0467C18.1131 19.223 17.6433 18.9375 17.6433 18.6235V12.9601H17.641ZM22.6752 12.9601H18.6649V17.388C19.2394 17.2173 20.1359 15.9351 20.6695 15.9351C21.0586 15.9351 21.7207 16.6962 22.037 16.959C22.211 17.1035 22.4591 17.3311 22.6752 17.3868V12.959V12.9601ZM29.3124 20.735C21.3305 21.528 23.2429 33.8411 31.1759 32.0481C38.0851 30.486 36.3558 20.0353 29.3124 20.735Z" fill="#F47D07"/>
<path d="M14.3747 27.2854L21.1859 27.2627C21.8754 27.356 21.6842 28.2923 21.013 28.29C18.9902 28.1137 16.5852 28.5187 14.6102 28.29C14.1221 28.2331 13.9719 27.9715 14.072 27.4925L14.3758 27.2843L14.3747 27.2854Z" fill="#F47D07"/>
<path d="M19.4111 24.479C19.7046 24.7555 19.5147 25.3209 19.1324 25.3914C17.7023 25.2743 16.0072 25.5564 14.6101 25.396C13.8718 25.3107 13.8217 24.446 14.5248 24.3721C15.5976 24.2583 17.8775 24.2742 18.9663 24.3687C19.1062 24.3812 19.3053 24.3801 19.41 24.479H19.4111Z" fill="#F47D07"/>
<path d="M29.5695 21.5869C36.0668 21.1831 36.4866 31.1173 30.0599 31.3573C23.731 31.594 23.2042 21.9817 29.5695 21.5869ZM29.5684 22.6086C24.1337 23.0102 25.4 31.5143 30.7834 30.2083C35.3171 29.1081 34.2477 22.2627 29.5684 22.6086Z" fill="#F47D07"/>
<path d="M29.8846 23.5586C30.7197 23.5552 30.1873 25.3698 30.392 25.9102C30.5752 26.173 32.1054 25.6406 31.9791 26.5382C31.8847 27.2026 29.6332 27.2037 29.3954 26.6497C29.2896 26.4017 29.2828 24.4221 29.3363 24.0785C29.3795 23.7975 29.5911 23.5597 29.8858 23.5586H29.8846Z" fill="#F47D07"/>
</svg>
