<svg width="43" height="45" viewBox="0 0 43 45" fill="none" xmlns="http://www.w3.org/2000/svg">
<path d="M24.3065 0.374512L27.4476 0.859163C38.5218 3.48948 45.0327 14.269 42.2852 25.3852C42.1362 25.9871 41.7164 27.672 41.4434 28.127C41.1954 28.54 40.6151 28.6936 40.341 28.2306C39.9735 27.6094 40.9724 26.7459 40.4104 25.6014C40.2078 25.1884 38.7095 24.0758 38.2601 23.8278C38.1896 23.7891 38.1714 23.7106 38.0428 23.747L34.6298 33.1738L36.8904 33.3934C38.6777 33.415 38.6128 31.6937 39.193 30.5708C39.6299 29.7243 40.5924 30.0611 40.4115 31.0202C40.3296 31.4536 39.6697 33.0737 39.4069 33.4286C39.1441 33.7836 38.5741 34.1044 38.3944 34.3775C37.7857 35.3047 37.2249 37.5004 36.6924 38.646C34.9688 42.3537 31.9847 42.7235 28.2042 42.5278C27.5864 43.3196 26.8049 43.777 25.8412 44.0477C25.4874 44.0159 25.0744 44.091 24.732 44.0477C23.6398 43.9089 22.4544 42.9237 22.0459 41.9134C20.4464 37.96 25.7377 35.1693 28.2042 38.5721C29.4329 38.4754 31.2498 38.9248 32.2839 38.1614C32.9654 37.6585 33.8482 35.4742 34.1167 34.6198C34.1304 34.5765 34.1406 34.481 34.0758 34.4935C32.681 36.2012 29.938 35.8325 29.2497 33.6869C28.9266 32.68 29.2031 32.1442 29.508 31.2067C30.6764 27.6299 32.144 24.1019 33.483 20.5945C34.7914 18.8117 37.6731 19.2133 38.3375 21.3613C38.4877 21.8471 38.3375 22.5308 38.8961 22.6366C39.8859 15.9505 36.4569 9.28254 30.5364 6.13003C21.8639 1.51219 11.0321 5.83765 7.9228 15.046H24.2621C24.4783 15.046 25.4886 15.4203 25.7275 15.5432C27.1985 16.2952 28.128 17.8936 28.2338 19.5205C28.475 23.2384 28.0426 27.2124 28.2338 30.9576C28.335 32.7335 26.1086 35.3468 24.3486 35.3468H20.5089L20.3815 35.4742V39.1421C20.3815 39.4652 19.7945 40.1409 19.5032 40.3116C18.3883 40.9658 17.6693 40.3571 16.8422 39.695C15.1323 38.3241 13.5543 36.7677 11.8467 35.3911C11.2642 35.1238 9.04455 35.836 9.2391 34.6596C9.29826 34.3046 9.60315 34.1215 9.93649 34.0748C10.4291 34.0054 12.0128 34.0088 12.42 34.2205L18.1665 39.1386C18.5692 39.4071 19.0118 39.3104 19.0959 38.7962C19.2916 37.6028 18.9435 35.9338 19.0971 34.7028C19.1551 34.2421 19.4884 34.109 19.9117 34.0657C21.5829 33.8974 23.8776 34.4878 25.3236 33.5902C26.3077 32.9781 26.905 31.9496 26.9562 30.7858C26.7025 27.1304 27.2827 23.0428 26.9505 19.4386C26.8026 17.8333 25.5375 16.492 23.9254 16.3202L4.8943 16.3225C3.41304 16.5887 2.26854 17.6775 2.03759 19.1815L2.05921 31.3558C2.29926 32.6516 3.48813 33.8928 4.81921 34.0555C5.43129 34.1306 6.82835 33.8905 7.24816 34.2716C7.63269 34.6209 7.48025 35.2796 6.94781 35.349C3.91021 35.7415 1.20026 34.4093 0.754289 31.2113C0.992064 27.3045 0.448253 23.0428 0.754289 19.1781C0.896499 17.376 2.18435 16.0096 3.73501 15.2485C5.80672 7.06406 13.3245 0.894431 21.7467 0.374512H24.3065ZM5.19351 15.046H6.55872C9.83524 4.63739 21.9174 -0.167023 31.5319 5.22216C37.8824 8.78196 40.9928 15.5773 40.1658 22.7538C40.1362 23.0109 40.0725 23.276 40.0053 23.5263L41.1999 24.4285C42.8473 17.2258 40.0224 9.64318 34.111 5.28701C25.9789 -0.708558 14.4997 0.888743 8.31644 8.82747C6.91596 10.625 5.71457 12.8264 5.19351 15.0449V15.046ZM35.3761 20.7811C34.9643 20.8573 34.5126 21.2509 34.359 21.64C33.2965 25.1623 31.5251 28.7016 30.5114 32.209C30.3772 32.6755 30.3078 32.9053 30.4943 33.3831C30.9619 34.5811 32.6616 34.5993 33.1963 33.4423L37.152 22.5558C37.3773 21.4409 36.4854 20.574 35.3761 20.7799V20.7811ZM31.4318 39.8679C30.6002 39.9669 29.5956 39.7951 28.7446 39.8679V41.2331H31.4318C31.6662 41.2331 32.4489 40.9896 32.714 40.8941C35.433 39.9032 35.8528 37.0783 36.8528 34.7108C36.838 34.58 35.631 34.5197 35.4819 34.6198C34.5502 36.6312 34.1281 39.5493 31.4318 39.869V39.8679ZM26.8356 42.1398C28.7662 40.2388 26.1814 37.0965 23.922 38.7587C21.4123 40.604 24.6012 44.3401 26.8356 42.1398Z" fill="#F47D07"/>
<path d="M5.51323 22.2315L23.3281 22.2087C24.1393 22.2816 24.2986 23.3908 23.4135 23.492L5.4882 23.4943C4.81356 23.4067 4.68955 22.3783 5.51323 22.2304V22.2315Z" fill="#F47D07"/>
<path d="M5.42556 25.3851L23.4123 25.3657C24.2644 25.4647 24.1529 26.5842 23.3269 26.649H5.57574C4.81349 26.5762 4.69517 25.6342 5.42556 25.3862V25.3851Z" fill="#F47D07"/>
<path d="M5.13322 29.606C4.60648 29.1805 5.13095 28.3659 5.74871 28.4364L20.1722 28.4342C20.9743 28.3932 21.4327 29.0906 20.807 29.6719L5.57464 29.7197C5.41992 29.714 5.26064 29.7072 5.13322 29.6048V29.606Z" fill="#F47D07"/>
</svg>
