<svg width="24" height="25" viewBox="0 0 24 25" fill="none" xmlns="http://www.w3.org/2000/svg">
<path d="M5.53999 20.0201C4.92999 20.0201 4.35999 19.81 3.94999 19.42C3.42999 18.93 3.17999 18.19 3.26999 17.39L3.63999 14.15C3.70999 13.54 4.07999 12.73 4.50999 12.29L12.72 3.60005C14.77 1.43005 16.91 1.37005 19.08 3.42005C21.25 5.47005 21.31 7.61005 19.26 9.78005L11.05 18.47C10.63 18.92 9.84999 19.34 9.23999 19.4401L6.01999 19.99C5.84999 20 5.69999 20.0201 5.53999 20.0201ZM15.93 3.41005C15.16 3.41005 14.49 3.89005 13.81 4.61005L5.59999 13.3101C5.39999 13.5201 5.16999 14.0201 5.12999 14.3101L4.75999 17.55C4.71999 17.88 4.79999 18.15 4.97999 18.32C5.15999 18.49 5.42999 18.55 5.75999 18.5L8.97999 17.9501C9.26999 17.9001 9.74999 17.64 9.94999 17.43L18.16 8.74005C19.4 7.42005 19.85 6.20005 18.04 4.50005C17.24 3.73005 16.55 3.41005 15.93 3.41005Z" fill="#F47D07"/>
<path d="M17.3399 11.45C17.3199 11.45 17.2899 11.45 17.2699 11.45C14.1499 11.14 11.6399 8.76997 11.1599 5.66997C11.0999 5.25997 11.3799 4.87997 11.7899 4.80997C12.1999 4.74997 12.5799 5.02997 12.6499 5.43997C13.0299 7.85997 14.9899 9.71997 17.4299 9.95997C17.8399 9.99997 18.1399 10.37 18.0999 10.78C18.0499 11.16 17.7199 11.45 17.3399 11.45Z" fill="#F47D07"/>
<path d="M21 23.25H3C2.59 23.25 2.25 22.91 2.25 22.5C2.25 22.09 2.59 21.75 3 21.75H21C21.41 21.75 21.75 22.09 21.75 22.5C21.75 22.91 21.41 23.25 21 23.25Z" fill="#F47D07"/>
</svg>
