<svg width="24" height="25" viewBox="0 0 24 25" fill="none" xmlns="http://www.w3.org/2000/svg">
<path d="M9.6499 14.3001L11.2599 15.5501C11.4699 15.7601 11.9399 15.8601 12.2499 15.8601H14.2299C14.8499 15.8601 15.5299 15.3901 15.6899 14.7701L16.9399 10.9801C17.1999 10.2501 16.7299 9.63008 15.9499 9.63008H13.8699C13.5599 9.63008 13.2999 9.37009 13.3499 9.01009L13.6099 7.35005C13.7099 6.88005 13.3999 6.36004 12.9299 6.21004C12.5099 6.05004 11.9899 6.26002 11.7899 6.57002L9.65991 9.74007" stroke="#F47D07" stroke-width="1.5" stroke-miterlimit="10"/>
<path d="M7 14.3002V9.21008C7 8.48008 7.30999 8.22009 8.03999 8.22009H8.56C9.29 8.22009 9.60001 8.48008 9.60001 9.21008V14.3002C9.60001 15.0302 9.29 15.2902 8.56 15.2902H8.03999C7.30999 15.2902 7 15.0302 7 14.3002Z" stroke="#F47D07" stroke-width="1.5" stroke-linecap="round" stroke-linejoin="round"/>
<path d="M18 19.36H17.24C16.44 19.36 15.68 19.67 15.12 20.23L13.41 21.92C12.63 22.69 11.36 22.69 10.58 21.92L8.87 20.23C8.31 19.67 7.54 19.36 6.75 19.36H6C4.34 19.36 3 18.03 3 16.39V5.47998C3 3.83998 4.34 2.51001 6 2.51001H18C19.66 2.51001 21 3.83998 21 5.47998V16.39C21 18.02 19.66 19.36 18 19.36Z" stroke="#F47D07" stroke-width="1.5" stroke-miterlimit="10" stroke-linecap="round" stroke-linejoin="round"/>
</svg>
